<svg xmlns="http://www.w3.org/2000/svg" viewBox="0 0 512 512" role="img" aria-labelledby="title desc">
  <title>Preguntas para 1er Parcial</title>
  <desc>Icono de repaso para el primer parcial con tarjeta de preguntas, 1P y respuesta correcta.</desc>
  <defs>
    <radialGradient id="bg" cx="50%" cy="46%" r="64%">
      <stop offset="0%" stop-color="#10a6bb" />
      <stop offset="62%" stop-color="#07839a" />
      <stop offset="100%" stop-color="#10252b" />
    </radialGradient>
    <linearGradient id="paper" x1="0" x2="1" y1="0" y2="1">
      <stop offset="0%" stop-color="#fffef6" />
      <stop offset="100%" stop-color="#e9e1d2" />
    </linearGradient>
    <linearGradient id="ink" x1="0" x2="1" y1="0" y2="1">
      <stop offset="0%" stop-color="#083e59" />
      <stop offset="100%" stop-color="#00677b" />
    </linearGradient>
    <filter id="shadow" x="-20%" y="-20%" width="140%" height="140%">
      <feDropShadow dx="0" dy="10" stdDeviation="8" flood-color="#061318" flood-opacity="0.35" />
    </filter>
  </defs>
  <rect width="512" height="512" fill="url(#bg)" />
  <circle cx="256" cy="256" r="202" fill="#0a91a8" opacity="0.45" stroke="#063d4d" stroke-width="3" />
  <g filter="url(#shadow)">
    <path d="M96 143c-4-36 17-59 53-63l220-24c36-4 61 16 65 52l29 262c4 36-17 60-53 64l-220 24c-36 4-61-17-65-53z" fill="#06384d" />
    <path d="M112 145c-3-25 12-42 38-45l218-24c26-3 43 11 46 37l28 254c3 25-12 43-38 46l-218 24c-26 3-43-12-46-38z" fill="url(#paper)" />
    <path d="M124 350l312-34 5 51c3 25-12 43-38 46l-218 24c-26 3-43-12-46-38z" fill="#d9d1c3" opacity="0.55" />
  </g>
  <g fill="none" stroke="#9aa39c" stroke-linecap="round" stroke-width="8" opacity="0.55">
    <path d="M140 161l72-8" />
    <path d="M141 243l53-6" />
    <path d="M150 317l57-6" />
    <path d="M286 142l74-8" />
    <path d="M296 316l67-7" />
  </g>
  <text x="252" y="318" text-anchor="middle" font-family="Arial Black, Arial, Helvetica, sans-serif" font-size="174" font-weight="900" fill="url(#ink)">1P</text>
  <g filter="url(#shadow)">
    <path d="M322 100h56c44 0 80 31 80 70s-36 70-80 70h-16l-47 29 12-38c-28-11-47-34-47-61 0-39 36-70 80-70z" fill="#fffdf5" />
    <path d="M332 112h46c37 0 67 25 67 58s-30 58-67 58h-21l-25 16 7-25c-24-9-41-28-41-49 0-33 30-58 67-58z" fill="#ef5b1f" />
    <text x="371" y="205" text-anchor="middle" font-family="Arial Black, Arial, Helvetica, sans-serif" font-size="92" font-weight="900" fill="#fffdf5">?</text>
  </g>
  <g filter="url(#shadow)">
    <circle cx="374" cy="361" r="58" fill="#fffdf5" />
    <circle cx="374" cy="361" r="46" fill="#45a832" />
    <path d="M346 360l21 22 41-50" fill="none" stroke="#fffdf5" stroke-linecap="round" stroke-linejoin="round" stroke-width="18" />
  </g>
</svg>
